<svg xmlns="http://www.w3.org/2000/svg" viewBox="0 0 286.27 64.43"><defs><style>.a{fill:#f39200;}.b{fill:#fff;}</style></defs><path class="a" d="M217.57,2.41s-100.67-8-124.3,5.17c-17.72,11.65-8.12,30-.85,37.12,27.94,23.37,79.78,23,116,14.16s80.67-24.57,77.71-36.56S217.57,2.41,217.57,2.41Z"/><path class="b" d="M3.19,42.29a1.5,1.5,0,0,1-.47,1.12,1.58,1.58,0,0,1-2.22,0l0,0A1.53,1.53,0,0,1,0,42.29V23.39A10.58,10.58,0,0,1,3.26,15.6a10.61,10.61,0,0,1,7.8-3.23,10.61,10.61,0,0,1,7.8,3.23,10.61,10.61,0,0,1,3.22,7.79,10.61,10.61,0,0,1-3.22,7.8,10.69,10.69,0,0,1-7.8,3.23,10.69,10.69,0,0,1-7.8-3.23l-.07-.08Zm0-18.9A7.8,7.8,0,0,0,11,31.27,7.61,7.61,0,0,0,16.6,29a7.59,7.59,0,0,0,2.3-5.58,7.57,7.57,0,0,0-2.3-5.57,7.55,7.55,0,0,0-5.54-2.31,7.57,7.57,0,0,0-5.6,2.31A7.6,7.6,0,0,0,3.19,23.39Z"/><path class="b" d="M47.28,23.39a11,11,0,1,1-11-11A11,11,0,0,1,47.28,23.39Zm-11-7.88a7.87,7.87,0,0,0-7.88,7.86h0a7.88,7.88,0,0,0,7.86,7.88h0a7.85,7.85,0,0,0,7.87-7.83v-.05a7.84,7.84,0,0,0-7.83-7.87Z"/><path class="b" d="M53.58,32.84A1.53,1.53,0,0,1,53.12,34a1.57,1.57,0,0,1-1.11.46,1.59,1.59,0,0,1-1.55-1.58V13.94a1.54,1.54,0,0,1,.47-1.11A1.46,1.46,0,0,1,52,12.37a1.57,1.57,0,0,1,1.57,1.57v.42a8.22,8.22,0,0,1,5.52-2,8.31,8.31,0,0,1,6.12,2.54,9.64,9.64,0,0,1,1,1.12,8.89,8.89,0,0,1,1-1.12A8.66,8.66,0,0,1,82,21V32.84A1.56,1.56,0,0,1,81.46,34a1.57,1.57,0,0,1-1.11.46,1.6,1.6,0,0,1-1.58-1.58V21a5.51,5.51,0,0,0-11-.67c0,.22,0,.45,0,.67V32.84A1.58,1.58,0,0,1,65.08,34a1.53,1.53,0,0,1-.46-1.12V21a5.52,5.52,0,0,0-11,0Z"/><path class="b" d="M107.13,23.39a11,11,0,0,1-22,0h0a11,11,0,0,1,22,0Zm-11-7.88a7.87,7.87,0,0,0-7.88,7.86h0a7.88,7.88,0,1,0,13.45-5.57A7.59,7.59,0,0,0,96.11,15.51Z"/><path class="b" d="M129.18,31.11l-.08.08a11,11,0,1,1,3.23-7.8v11a8.26,8.26,0,0,1-2.48,6,11.78,11.78,0,0,1-16.67,0l0,0a11.79,11.79,0,0,1-2.09-2.73,1.46,1.46,0,0,1-.24-.83,1.54,1.54,0,0,1,.47-1.11,1.46,1.46,0,0,1,1.11-.46,1.52,1.52,0,0,1,1.12.45,2.69,2.69,0,0,1,.34.47,8.91,8.91,0,0,0,1.51,2,8.64,8.64,0,0,0,12.23,0h0a5.87,5.87,0,0,0,1.57-3.76Zm-7.87-15.6a7.89,7.89,0,1,0,5.6,2.31A7.61,7.61,0,0,0,121.31,15.51Z"/><path class="b" d="M140.6,7.64a2,2,0,0,1-2.07,1.92A2,2,0,0,1,137.24,9a2,2,0,0,1,0-2.75l0,0a2,2,0,0,1,2.78,0A1.85,1.85,0,0,1,140.6,7.64Zm-3.54,6.3a1.57,1.57,0,0,1,1.57-1.57h0a1.46,1.46,0,0,1,1.11.46,1.54,1.54,0,0,1,.47,1.11v18.9A1.58,1.58,0,0,1,137.52,34a1.53,1.53,0,0,1-.46-1.12Z"/><path class="b" d="M156,31.27a1.58,1.58,0,0,1,1.57,1.59,1.63,1.63,0,0,1-.46,1.1,1.57,1.57,0,0,1-1.11.46q-7.87,0-7.88-7.88v-11h-1.57a1.52,1.52,0,0,1-1.12-.46,1.59,1.59,0,0,1,0-2.23,1.52,1.52,0,0,1,1.12-.46h1.57V4.51a1.53,1.53,0,0,1,.46-1.11,1.58,1.58,0,0,1,2.24,0,1.6,1.6,0,0,1,.45,1.1v7.88h3.17a1.46,1.46,0,0,1,1.11.46,1.54,1.54,0,0,1,0,2.2l0,0a1.49,1.49,0,0,1-1.11.46h-3.17v11Q151.23,31.25,156,31.27Z"/><path class="b" d="M177.77,29.06a1.6,1.6,0,0,1,1.58,1.58,1.57,1.57,0,0,1-.46,1.12,11,11,0,0,1-15-.57,10.62,10.62,0,0,1-3.23-7.8,11,11,0,1,1,22.05,0A1.57,1.57,0,0,1,181.15,25H164a7.92,7.92,0,0,0,7.74,6.3,7.42,7.42,0,0,0,5.08-1.87A1.6,1.6,0,0,1,177.77,29.06Zm1.69-7.24a7.9,7.9,0,0,0-15.47,0Z"/><path class="b" d="M190.61,32.06a2.36,2.36,0,1,1-2.35-2.38,2.39,2.39,0,0,1,1.66.7A2.3,2.3,0,0,1,190.61,32.06Z"/><path class="b" d="M196.91,32.84A1.58,1.58,0,0,1,194.22,34a1.53,1.53,0,0,1-.46-1.12V13.94a1.57,1.57,0,0,1,1.57-1.57h0a1.46,1.46,0,0,1,1.11.46,1.54,1.54,0,0,1,.47,1.11v.42a8.19,8.19,0,0,1,5.51-2,8.31,8.31,0,0,1,6.12,2.54,8.89,8.89,0,0,1,1,1.12,8.89,8.89,0,0,1,1-1.12A8.67,8.67,0,0,1,225.33,21V32.84a1.5,1.5,0,0,1-.47,1.12,1.58,1.58,0,0,1-2.22,0,1.53,1.53,0,0,1-.46-1.12V21a5.52,5.52,0,0,0-11-.94,4.92,4.92,0,0,0,0,.94V32.84a1.53,1.53,0,0,1-.46,1.12,1.59,1.59,0,0,1-2.23,0,1.53,1.53,0,0,1-.46-1.12V21a5.51,5.51,0,0,0-11-.67c0,.22,0,.45,0,.67Z"/><path class="b" d="M245.46,29.06a1.49,1.49,0,0,1,1.12.47,1.59,1.59,0,0,1,0,2.23,11,11,0,1,1,3.88-8.37h0A1.57,1.57,0,0,1,248.9,25H231.69a7.92,7.92,0,0,0,7.74,6.3,7.42,7.42,0,0,0,5.08-1.87A1.51,1.51,0,0,1,245.46,29.06Zm1.68-7.24a7.91,7.91,0,0,0-15.48,0Z"/><path class="b" d="M156.86,40.79a2.67,2.67,0,0,1-3.71,2.47,2.76,2.76,0,0,1-.87-.58,2.94,2.94,0,0,1-.58-.87,2.51,2.51,0,0,1-.2-1,2.67,2.67,0,0,1,4.57-1.9A2.57,2.57,0,0,1,156.86,40.79Zm-2.68-2.27a2.25,2.25,0,0,0-2.27,2.27,2.19,2.19,0,0,0,.66,1.6,2.21,2.21,0,0,0,1.61.66,2.27,2.27,0,0,0,2.27-2.26,2.22,2.22,0,0,0-.67-1.61A2.19,2.19,0,0,0,154.18,38.52Z"/><path class="b" d="M157.4,39.92a.21.21,0,0,1,.21-.21.2.2,0,0,1,.14.06.21.21,0,0,1,.07.15v.39a1.87,1.87,0,0,1,1.32-.6,1.64,1.64,0,0,1,1.22.51,1.68,1.68,0,0,1,.51,1.23v1.81a.21.21,0,0,1-.21.21.2.2,0,0,1-.14-.06.2.2,0,0,1-.06-.15V41.45a1.24,1.24,0,0,0-.39-.93,1.32,1.32,0,0,0-2.25.93v1.81a.21.21,0,0,1-.07.15.2.2,0,0,1-.14.06.21.21,0,0,1-.21-.21Z"/><path class="b" d="M161.42,38.31a.2.2,0,0,1,.06-.15.2.2,0,0,1,.14-.06.21.21,0,0,1,.21.21v4.74h2.82a.22.22,0,0,1,.21.21.21.21,0,0,1-.21.21h-3a.2.2,0,0,1-.14-.06.2.2,0,0,1-.06-.15Z"/><path class="b" d="M166.23,38.81a.27.27,0,1,1-.08-.2A.3.3,0,0,1,166.23,38.81Zm-.49,1.11a.21.21,0,1,1,.42,0v3.34a.21.21,0,1,1-.42,0Z"/><path class="b" d="M167.05,39.92a.21.21,0,1,1,.42,0v.39a1.87,1.87,0,0,1,1.32-.6,1.74,1.74,0,0,1,1.74,1.74v1.81a.2.2,0,0,1-.06.15.22.22,0,0,1-.15.06.21.21,0,0,1-.21-.21V41.45a1.24,1.24,0,0,0-.39-.93,1.27,1.27,0,0,0-.93-.39,1.31,1.31,0,0,0-1.32,1.32v1.81a.21.21,0,1,1-.42,0Z"/><path class="b" d="M174,42.66a.22.22,0,0,1,.15.06.2.2,0,0,1,.06.15.17.17,0,0,1-.06.14,1.77,1.77,0,0,1-1.22.46,1.84,1.84,0,0,1-1.33-.55,1.88,1.88,0,0,1,0-2.66,1.88,1.88,0,0,1,3.21,1.33.21.21,0,0,1-.21.21h-3.13a1.55,1.55,0,0,0,.43.82,1.38,1.38,0,0,0,1,.43,1.44,1.44,0,0,0,.51-.09,1.43,1.43,0,0,0,.43-.25A.17.17,0,0,1,174,42.66Zm.38-1.28a1.47,1.47,0,0,0-.42-.82,1.45,1.45,0,0,0-2.06,0,1.55,1.55,0,0,0-.43.82Z"/><path class="b" d="M177.37,38.31a.21.21,0,1,1,.42,0v2.27h2.88V38.31a.21.21,0,0,1,.07-.15.2.2,0,0,1,.14-.06.21.21,0,0,1,.21.21v4.95a.21.21,0,0,1-.21.21.2.2,0,0,1-.14-.06.21.21,0,0,1-.07-.15V41h-2.88v2.27a.21.21,0,1,1-.42,0Z"/><path class="b" d="M184.61,42.66a.21.21,0,0,1,.21.21.17.17,0,0,1-.06.14,1.75,1.75,0,0,1-1.22.46,1.88,1.88,0,1,1,1.88-1.88.21.21,0,0,1-.21.21h-3.12a1.47,1.47,0,0,0,.42.82,1.38,1.38,0,0,0,1,.43,1.44,1.44,0,0,0,.51-.09,1.43,1.43,0,0,0,.43-.25A.17.17,0,0,1,184.61,42.66Zm.38-1.28a1.47,1.47,0,0,0-.42-.82,1.45,1.45,0,0,0-2.06,0,1.47,1.47,0,0,0-.42.82Z"/><path class="b" d="M186,38.3a.21.21,0,0,1,.2-.2.2.2,0,0,1,.15.06.21.21,0,0,1,.07.14v4.75h.34a.21.21,0,1,1,0,.42h-.56a.2.2,0,0,1-.14-.06.2.2,0,0,1-.06-.15Z"/><path class="b" d="M188,44.87a.21.21,0,1,1-.42,0V41.59a1.88,1.88,0,1,1,.55,1.33l-.13-.13Zm0-3.28a1.47,1.47,0,1,0,.43-1A1.38,1.38,0,0,0,188,41.59Z"/><path class="b" d="M193.16,38.1a2.7,2.7,0,0,1,2.68,2.69,2.7,2.7,0,0,1-2.68,2.68h-1.1a.21.21,0,0,1-.21-.21V38.31a.21.21,0,0,1,.21-.21Zm0,4.95a2.19,2.19,0,0,0,1.6-.66,2.16,2.16,0,0,0,.67-1.6,2.18,2.18,0,0,0-.67-1.61,2.21,2.21,0,0,0-1.6-.66h-.89v4.53Z"/><path class="b" d="M199.36,42.66a.22.22,0,0,1,.15.06.2.2,0,0,1,.06.15.17.17,0,0,1-.06.14,1.77,1.77,0,0,1-1.22.46,1.84,1.84,0,0,1-1.33-.55,1.88,1.88,0,0,1,0-2.66,1.88,1.88,0,0,1,3.21,1.33.21.21,0,0,1-.21.21h-3.13a1.55,1.55,0,0,0,.43.82,1.38,1.38,0,0,0,1,.43,1.44,1.44,0,0,0,.51-.09,1.43,1.43,0,0,0,.43-.25A.17.17,0,0,1,199.36,42.66Zm.38-1.28a1.47,1.47,0,0,0-.42-.82,1.45,1.45,0,0,0-2.06,0,1.55,1.55,0,0,0-.43.82Z"/><path class="b" d="M201.35,41.52h0a2.26,2.26,0,0,1-.26-.11.67.67,0,0,1-.16-.12.73.73,0,0,1-.22-.54.8.8,0,0,1,.23-.55,1.74,1.74,0,0,1,1.26-.49,1.79,1.79,0,0,1,.79.18,2.22,2.22,0,0,1,.66.5.21.21,0,0,1-.18.32.14.14,0,0,1-.13-.05l-.1-.1a1.4,1.4,0,0,0-1-.43,1.27,1.27,0,0,0-1,.39.41.41,0,0,0-.1.29.3.3,0,0,0,.22.28l1.71.57h0a1.17,1.17,0,0,1,.25.11.55.55,0,0,1,.16.11.76.76,0,0,1,0,1.1,1.71,1.71,0,0,1-1.26.49,1.89,1.89,0,0,1-1.44-.67.27.27,0,0,1,0-.12.2.2,0,0,1,.06-.15.21.21,0,0,1,.14-.07.18.18,0,0,1,.14.06l.1.1a1.4,1.4,0,0,0,1,.43,1.28,1.28,0,0,0,1-.38.44.44,0,0,0,.11-.29.31.31,0,0,0-.22-.29Z"/><path class="b" d="M204.68,41.34l2.46-1.6a.21.21,0,0,1,.32.18.22.22,0,0,1-.07.16l-1.7,1.11,1.71,1.92a.21.21,0,0,1-.15.36.21.21,0,0,1-.15-.07l-1.77-2-.65.42v1.42a.21.21,0,1,1-.42,0v-5a.2.2,0,0,1,.06-.14.22.22,0,0,1,.3,0,.2.2,0,0,1,.06.14Z"/><path class="b" d="M213.36,42.78a1.92,1.92,0,0,1-1.46.68,1.84,1.84,0,0,1-1.33-.55,1.87,1.87,0,0,1,0-2.65,1.84,1.84,0,0,1,1.33-.55,1.88,1.88,0,0,1,1.87,1.88v1.89a1.43,1.43,0,0,1-.41,1,2,2,0,0,1-2.86,0,1.93,1.93,0,0,1-.35-.46.28.28,0,0,1,0-.12.21.21,0,0,1,.36-.15.18.18,0,0,1,.05.07,1.65,1.65,0,0,0,.28.36,1.37,1.37,0,0,0,.52.35,1.51,1.51,0,0,0,.61.12,1.55,1.55,0,0,0,1.13-.47,1.1,1.1,0,0,0,.3-.71Zm-1.46-2.65a1.46,1.46,0,1,0,0,2.91,1.45,1.45,0,0,0,1.46-1.45,1.44,1.44,0,0,0-.43-1A1.43,1.43,0,0,0,211.9,40.13Z"/><path class="b" d="M216.23,39.82l1.54,3.37a.11.11,0,0,1,0,.08.2.2,0,0,1-.06.15.25.25,0,0,1-.15,0,.2.2,0,0,1-.15-.06.1.1,0,0,1,0,0l-1.34-2.93-1.34,2.93,0,.06a.25.25,0,0,1-.15,0,.2.2,0,0,1-.15-.06.2.2,0,0,1-.06-.14.15.15,0,0,1,0-.08l1.54-3.37,0,0a.2.2,0,0,1,.15-.06.25.25,0,0,1,.15.05Z"/><path class="b" d="M220.91,39.71a.21.21,0,0,1,.21.21v3.34a.21.21,0,0,1-.21.21.2.2,0,0,1-.14-.06.2.2,0,0,1-.06-.15V41.8h-.91a.62.62,0,0,0-.44.18.66.66,0,0,0-.12.17l-.63,1.19-.05.07a.2.2,0,0,1-.15.06.24.24,0,0,1-.15-.06.2.2,0,0,1-.06-.14.37.37,0,0,1,.05-.15l.62-1.17a2.08,2.08,0,0,1,.18-.26,1.24,1.24,0,0,1-.26-.2,1,1,0,0,1,.73-1.78Zm-.2,1.67V40.13h-1.19a.61.61,0,0,0-.62.62.61.61,0,0,0,.18.45.62.62,0,0,0,.44.18Z"/><path class="b" d="M224.11,40.39l.14-.13a1.8,1.8,0,0,1,1.32-.55,1.84,1.84,0,0,1,1.33.55,1.88,1.88,0,0,1,0,2.66,1.84,1.84,0,0,1-1.33.55,1.88,1.88,0,0,1-1.87-1.88V40.2a1.8,1.8,0,0,1,.55-1.33,1.77,1.77,0,0,1,1.32-.55h.16a2.45,2.45,0,0,0,1.14-.26l.09,0a.21.21,0,0,1,.15.36l-.06,0a2.55,2.55,0,0,1-.62.23,3.14,3.14,0,0,1-.7.07h-.16a1.47,1.47,0,0,0-1.46,1.46Zm2.92,1.2a1.46,1.46,0,0,0-2.49-1,1.45,1.45,0,0,0,0,2.06,1.46,1.46,0,0,0,2.49-1Z"/><path class="b" d="M231.47,43.26a.18.18,0,0,1-.07.15.2.2,0,0,1-.15.06.2.2,0,0,1-.14-.06.2.2,0,0,1-.06-.15v-.39a1.87,1.87,0,0,1-1.32.6A1.74,1.74,0,0,1,228,41.73V39.92a.21.21,0,1,1,.42,0v1.81a1.24,1.24,0,0,0,.38.93,1.31,1.31,0,0,0,.94.39,1.27,1.27,0,0,0,.93-.39,1.25,1.25,0,0,0,.39-.93V39.92a.2.2,0,0,1,.06-.15.2.2,0,0,1,.14-.06.2.2,0,0,1,.15.06.18.18,0,0,1,.07.15Z"/><path class="b" d="M232.5,42.67a2,2,0,0,0,.21.21,1.19,1.19,0,0,0,.63.17,1,1,0,0,0,.63-.2.56.56,0,0,0,.27-.46.63.63,0,0,0-.27-.51.93.93,0,0,0-.63-.22.21.21,0,1,1,0-.42,1.27,1.27,0,0,0,.63-.14.42.42,0,0,0,.27-.38.49.49,0,0,0-.27-.43,1.28,1.28,0,0,0-.63-.16,1.11,1.11,0,0,0-.63.18,1,1,0,0,0-.2.2l0,0a.22.22,0,0,1-.15.06.2.2,0,0,1-.15-.06.2.2,0,0,1-.06-.14.18.18,0,0,1,0-.11,1.07,1.07,0,0,1,.25-.28,1.49,1.49,0,0,1,.94-.3,1.44,1.44,0,0,1,.93.29.86.86,0,0,1,.39.71.87.87,0,0,1-.52.72,1.3,1.3,0,0,1,.52,1,.94.94,0,0,1-.39.75,1.36,1.36,0,0,1-.93.33,1.5,1.5,0,0,1-.94-.31,1.07,1.07,0,0,1-.23-.25.16.16,0,0,1,0-.12.2.2,0,0,1,.06-.15.2.2,0,0,1,.14-.06A.19.19,0,0,1,232.5,42.67Z"/><path class="b" d="M235.65,41.8v1.46a.21.21,0,1,1-.42,0V39.92a.21.21,0,1,1,.42,0v1.46h2.22V39.92a.21.21,0,0,1,.07-.15.18.18,0,0,1,.14-.06.21.21,0,0,1,.21.21v3.34a.21.21,0,0,1-.21.21.18.18,0,0,1-.14-.06.21.21,0,0,1-.07-.15V41.8Z"/><path class="b" d="M241.79,42.66a.21.21,0,0,1,.21.21A.2.2,0,0,1,242,43a1.79,1.79,0,0,1-1.23.46,1.88,1.88,0,0,1,0-3.76,1.84,1.84,0,0,1,1.33.55,1.8,1.8,0,0,1,.55,1.33.21.21,0,0,1-.21.21h-3.12a1.61,1.61,0,0,0,.42.82,1.4,1.4,0,0,0,1,.43,1.36,1.36,0,0,0,.51-.09,1.43,1.43,0,0,0,.43-.25A.17.17,0,0,1,241.79,42.66Zm.38-1.28a1.53,1.53,0,0,0-.41-.82,1.46,1.46,0,0,0-2.07,0,1.61,1.61,0,0,0-.42.82Z"/><path class="b" d="M246.14,42.65a.22.22,0,0,1,.15.06.23.23,0,0,1,.05.15.2.2,0,0,1-.06.15,1.84,1.84,0,0,1-.57.34,1.75,1.75,0,0,1-.65.12,1.84,1.84,0,0,1-1.33-.55,1.88,1.88,0,0,1,0-2.66,1.88,1.88,0,0,1,2-.43,1.79,1.79,0,0,1,.56.34.18.18,0,0,1,.05.07.16.16,0,0,1,0,.09.21.21,0,0,1-.07.15.18.18,0,0,1-.14.06.22.22,0,0,1-.14,0,1.46,1.46,0,1,0-.95,2.56,1.29,1.29,0,0,0,.51-.1,1.5,1.5,0,0,0,.44-.26A.28.28,0,0,1,246.14,42.65Z"/><path class="b" d="M250.27,42.79a2.05,2.05,0,0,1-1.46.68,1.84,1.84,0,0,1-1.33-.55,1.88,1.88,0,0,1,0-2.66,1.88,1.88,0,0,1,3.21,1.33v1.67a.21.21,0,0,1-.07.15.18.18,0,0,1-.14.06.21.21,0,0,1-.21-.21Zm-1.46-2.66a1.46,1.46,0,0,0,0,2.92,1.4,1.4,0,0,0,1-.43,1.45,1.45,0,0,0,0-2.06A1.4,1.4,0,0,0,248.81,40.13Z"/></svg>