<svg xmlns="http://www.w3.org/2000/svg" viewBox="0 0 286.27 64.43"><defs><style>.a{fill:#f39200;}.b{fill:#fff;}</style></defs><path class="a" d="M217.57,2.41s-100.67-8-124.3,5.17c-17.72,11.65-8.12,30-.85,37.12,27.94,23.37,79.78,23,116,14.16s80.67-24.57,77.71-36.56S217.57,2.41,217.57,2.41Z"/><path class="b" d="M3.19,42.29a1.5,1.5,0,0,1-.47,1.12,1.58,1.58,0,0,1-2.22,0l0,0A1.53,1.53,0,0,1,0,42.29V23.39A10.58,10.58,0,0,1,3.26,15.6a10.61,10.61,0,0,1,7.8-3.23,10.61,10.61,0,0,1,7.8,3.23,10.61,10.61,0,0,1,3.22,7.79,10.61,10.61,0,0,1-3.22,7.8,10.69,10.69,0,0,1-7.8,3.23,10.69,10.69,0,0,1-7.8-3.23l-.07-.08Zm0-18.9A7.8,7.8,0,0,0,11,31.27,7.61,7.61,0,0,0,16.6,29a7.59,7.59,0,0,0,2.3-5.58,7.57,7.57,0,0,0-2.3-5.57,7.55,7.55,0,0,0-5.54-2.31,7.57,7.57,0,0,0-5.6,2.31A7.6,7.6,0,0,0,3.19,23.39Z"/><path class="b" d="M47.28,23.39a11,11,0,1,1-11-11A11,11,0,0,1,47.28,23.39Zm-11-7.88a7.87,7.87,0,0,0-7.88,7.86h0a7.88,7.88,0,0,0,7.86,7.88h0a7.85,7.85,0,0,0,7.87-7.83v-.05a7.84,7.84,0,0,0-7.83-7.87Z"/><path class="b" d="M53.58,32.84A1.53,1.53,0,0,1,53.12,34a1.57,1.57,0,0,1-1.11.46,1.59,1.59,0,0,1-1.55-1.58V13.94a1.54,1.54,0,0,1,.47-1.11A1.46,1.46,0,0,1,52,12.37a1.57,1.57,0,0,1,1.57,1.57v.42a8.22,8.22,0,0,1,5.52-2,8.31,8.31,0,0,1,6.12,2.54,9.64,9.64,0,0,1,1,1.12,8.89,8.89,0,0,1,1-1.12A8.66,8.66,0,0,1,82,21V32.84A1.56,1.56,0,0,1,81.46,34a1.57,1.57,0,0,1-1.11.46,1.6,1.6,0,0,1-1.58-1.58V21a5.51,5.51,0,0,0-11-.67c0,.22,0,.45,0,.67V32.84A1.58,1.58,0,0,1,65.08,34a1.53,1.53,0,0,1-.46-1.12V21a5.52,5.52,0,0,0-11,0Z"/><path class="b" d="M107.13,23.39a11,11,0,0,1-22,0h0a11,11,0,0,1,22,0Zm-11-7.88a7.87,7.87,0,0,0-7.88,7.86h0a7.88,7.88,0,1,0,13.45-5.57A7.59,7.59,0,0,0,96.11,15.51Z"/><path class="b" d="M129.18,31.11l-.08.08a11,11,0,1,1,3.23-7.8v11a8.26,8.26,0,0,1-2.48,6,11.78,11.78,0,0,1-16.67,0l0,0a11.79,11.79,0,0,1-2.09-2.73,1.46,1.46,0,0,1-.24-.83,1.54,1.54,0,0,1,.47-1.11,1.46,1.46,0,0,1,1.11-.46,1.52,1.52,0,0,1,1.12.45,2.69,2.69,0,0,1,.34.47,8.91,8.91,0,0,0,1.51,2,8.64,8.64,0,0,0,12.23,0h0a5.87,5.87,0,0,0,1.57-3.76Zm-7.87-15.6a7.89,7.89,0,1,0,5.6,2.31A7.61,7.61,0,0,0,121.31,15.51Z"/><path class="b" d="M140.6,7.64a2,2,0,0,1-2.07,1.92A2,2,0,0,1,137.24,9a2,2,0,0,1,0-2.75l0,0a2,2,0,0,1,2.78,0A1.85,1.85,0,0,1,140.6,7.64Zm-3.54,6.3a1.57,1.57,0,0,1,1.57-1.57h0a1.46,1.46,0,0,1,1.11.46,1.54,1.54,0,0,1,.47,1.11v18.9A1.58,1.58,0,0,1,137.52,34a1.53,1.53,0,0,1-.46-1.12Z"/><path class="b" d="M156,31.27a1.58,1.58,0,0,1,1.57,1.59,1.63,1.63,0,0,1-.46,1.1,1.57,1.57,0,0,1-1.11.46q-7.87,0-7.88-7.88v-11h-1.57a1.52,1.52,0,0,1-1.12-.46,1.59,1.59,0,0,1,0-2.23,1.52,1.52,0,0,1,1.12-.46h1.57V4.51a1.53,1.53,0,0,1,.46-1.11,1.58,1.58,0,0,1,2.24,0,1.6,1.6,0,0,1,.45,1.1v7.88h3.17a1.46,1.46,0,0,1,1.11.46,1.54,1.54,0,0,1,0,2.2l0,0a1.49,1.49,0,0,1-1.11.46h-3.17v11Q151.23,31.25,156,31.27Z"/><path class="b" d="M177.77,29.06a1.6,1.6,0,0,1,1.58,1.58,1.57,1.57,0,0,1-.46,1.12,11,11,0,0,1-15-.57,10.62,10.62,0,0,1-3.23-7.8,11,11,0,1,1,22.05,0A1.57,1.57,0,0,1,181.15,25H164a7.92,7.92,0,0,0,7.74,6.3,7.42,7.42,0,0,0,5.08-1.87A1.6,1.6,0,0,1,177.77,29.06Zm1.69-7.24a7.9,7.9,0,0,0-15.47,0Z"/><path class="b" d="M190.61,32.06a2.36,2.36,0,1,1-2.35-2.38,2.39,2.39,0,0,1,1.66.7A2.3,2.3,0,0,1,190.61,32.06Z"/><path class="b" d="M196.91,32.84A1.58,1.58,0,0,1,194.22,34a1.53,1.53,0,0,1-.46-1.12V13.94a1.57,1.57,0,0,1,1.57-1.57h0a1.46,1.46,0,0,1,1.11.46,1.54,1.54,0,0,1,.47,1.11v.42a8.19,8.19,0,0,1,5.51-2,8.31,8.31,0,0,1,6.12,2.54,8.89,8.89,0,0,1,1,1.12,8.89,8.89,0,0,1,1-1.12A8.67,8.67,0,0,1,225.33,21V32.84a1.5,1.5,0,0,1-.47,1.12,1.58,1.58,0,0,1-2.22,0,1.53,1.53,0,0,1-.46-1.12V21a5.52,5.52,0,0,0-11-.94,4.92,4.92,0,0,0,0,.94V32.84a1.53,1.53,0,0,1-.46,1.12,1.59,1.59,0,0,1-2.23,0,1.53,1.53,0,0,1-.46-1.12V21a5.51,5.51,0,0,0-11-.67c0,.22,0,.45,0,.67Z"/><path class="b" d="M245.46,29.06a1.49,1.49,0,0,1,1.12.47,1.59,1.59,0,0,1,0,2.23,11,11,0,1,1,3.88-8.37h0A1.57,1.57,0,0,1,248.9,25H231.69a7.92,7.92,0,0,0,7.74,6.3,7.42,7.42,0,0,0,5.08-1.87A1.51,1.51,0,0,1,245.46,29.06Zm1.68-7.24a7.91,7.91,0,0,0-15.48,0Z"/><path class="b" d="M142,42.51a3.32,3.32,0,0,1-1,2.43,3.43,3.43,0,0,1-3.73.74,3.36,3.36,0,0,1-1.86-1.86,3.43,3.43,0,0,1,1.86-4.48,3.48,3.48,0,0,1,1.31-.26A3.44,3.44,0,0,1,142,42.51Zm-3.43-2.9a2.83,2.83,0,0,0-2,.85,2.91,2.91,0,0,0,2,5,2.85,2.85,0,0,0,2-.85,2.92,2.92,0,0,0,0-4.11,2.82,2.82,0,0,0-2-.9Z"/><path class="b" d="M142.66,41.4a.27.27,0,0,1,.27-.27h0a.25.25,0,0,1,.18.08.19.19,0,0,1,.08.19v.49a2.42,2.42,0,0,1,1.69-.76,2.23,2.23,0,0,1,2.23,2.23v2.31a.27.27,0,0,1-.08.19.32.32,0,0,1-.19.07.26.26,0,0,1-.19-.07.27.27,0,0,1-.08-.19V43.36a1.69,1.69,0,1,0-3.38,0h0v2.31a.27.27,0,0,1-.08.19.29.29,0,0,1-.18.07.26.26,0,0,1-.19-.07.27.27,0,0,1-.08-.19Z"/><path class="b" d="M148.07,43.8a.27.27,0,0,1-.19-.08.21.21,0,0,1-.08-.19.24.24,0,0,1,.08-.19.23.23,0,0,1,.19-.07h2.13a.23.23,0,0,1,.19.07.24.24,0,0,1,.07.17.27.27,0,0,1-.27.27Z"/><path class="b" d="M151.26,39.33a.27.27,0,0,1,.54,0V45.4h.44a.27.27,0,0,1,.22.11.27.27,0,0,1,0,.38.32.32,0,0,1-.19.07h-.71a.26.26,0,0,1-.19-.07.27.27,0,0,1-.08-.19Z"/><path class="b" d="M154.3,40a.38.38,0,0,1-.11.26.37.37,0,0,1-.5,0,.38.38,0,0,1-.11-.26.33.33,0,0,1,.11-.25.35.35,0,0,1,.5,0A.33.33,0,0,1,154.3,40Zm-.63,1.43a.27.27,0,0,1,.27-.27h0a.27.27,0,0,1,.27.27v4.27a.27.27,0,0,1-.08.19.32.32,0,0,1-.19.07.26.26,0,0,1-.19-.07.27.27,0,0,1-.08-.19Z"/><path class="b" d="M155.35,41.4a.27.27,0,0,1,.27-.27h0a.27.27,0,0,1,.19.08.23.23,0,0,1,.07.19v.49a2.42,2.42,0,0,1,1.69-.76,2.23,2.23,0,0,1,2.23,2.23v2.31a.27.27,0,0,1-.08.19.32.32,0,0,1-.19.07.26.26,0,0,1-.19-.07.27.27,0,0,1-.08-.19V43.36a1.59,1.59,0,0,0-.5-1.2,1.69,1.69,0,0,0-2.88,1.2v2.31a.24.24,0,0,1-.22.26h0a.26.26,0,0,1-.19-.07.27.27,0,0,1-.08-.19Z"/><path class="b" d="M164.26,44.9a.27.27,0,0,1,.27.27.26.26,0,0,1-.07.18,2.4,2.4,0,1,1,.13-3.52,2.3,2.3,0,0,1,.7,1.7.23.23,0,0,1-.07.19.33.33,0,0,1-.19.08h-4a2,2,0,0,0,.54,1.05,1.86,1.86,0,0,0,1.32.55,1.76,1.76,0,0,0,1.2-.44A.27.27,0,0,1,164.26,44.9Zm.49-1.63a2,2,0,0,0-.54-1.06,1.86,1.86,0,0,0-2.64,0,2.11,2.11,0,0,0-.54,1.06Z"/><path class="b" d="M168.55,39.34a.27.27,0,0,1,.27-.27h0a.25.25,0,0,1,.18.08.27.27,0,0,1,.08.19v2.9h3.69v-2.9a.27.27,0,0,1,.46-.19.23.23,0,0,1,.07.19v6.33a.24.24,0,0,1-.22.26h0a.32.32,0,0,1-.19-.07.27.27,0,0,1-.08-.19v-2.9h-3.69v2.9a.27.27,0,0,1-.08.19.29.29,0,0,1-.18.07.26.26,0,0,1-.19-.07.27.27,0,0,1-.08-.19Z"/><path class="b" d="M177.81,44.9A.27.27,0,0,1,178,45a.23.23,0,0,1,.07.19.3.3,0,0,1-.06.18,2.4,2.4,0,1,1,.13-3.52,2.3,2.3,0,0,1,.7,1.7.21.21,0,0,1-.08.19.25.25,0,0,1-.18.08h-4a2,2,0,0,0,.54,1.05,1.86,1.86,0,0,0,1.32.55,1.76,1.76,0,0,0,1.2-.44A.27.27,0,0,1,177.81,44.9Zm.49-1.63a2,2,0,0,0-.54-1.06,1.86,1.86,0,0,0-2.64,0,2.11,2.11,0,0,0-.54,1.06Z"/><path class="b" d="M179.56,39.33a.24.24,0,0,1,.08-.19.25.25,0,0,1,.18-.08.28.28,0,0,1,.2.08.26.26,0,0,1,.07.19V45.4h.45a.27.27,0,0,1,.19.46.32.32,0,0,1-.19.07h-.72a.29.29,0,0,1-.18-.07.27.27,0,0,1-.08-.19Z"/><path class="b" d="M182.12,47.72a.27.27,0,0,1-.46.19.26.26,0,0,1-.07-.19V43.51a2.4,2.4,0,1,1,.7,1.7l-.17-.17Zm0-4.19a1.87,1.87,0,1,0,3.74,0,1.86,1.86,0,0,0-.55-1.31,1.78,1.78,0,0,0-1.32-.55,1.88,1.88,0,0,0-1.87,1.85Z"/><path class="b" d="M188.75,39.07a3.43,3.43,0,1,1,0,6.86h-1.41a.26.26,0,0,1-.19-.07.27.27,0,0,1-.08-.19V39.34a.27.27,0,0,1,.27-.27h1.41Zm0,6.34a2.91,2.91,0,0,0,0-5.81H187.6v5.81Z"/><path class="b" d="M196.67,44.9a.27.27,0,0,1,.27.27h0a.22.22,0,0,1-.07.18,2.4,2.4,0,1,1,.14-3.51,2.38,2.38,0,0,1,.7,1.69.27.27,0,0,1-.27.27h-4a2.06,2.06,0,0,0,.55,1.05,1.77,1.77,0,0,0,1.32.55,2.06,2.06,0,0,0,.65-.11,2.17,2.17,0,0,0,.55-.33A.25.25,0,0,1,196.67,44.9Zm.49-1.63a2,2,0,0,0-.53-1.06,1.86,1.86,0,0,0-2.64,0,2,2,0,0,0-.55,1.06Z"/><path class="b" d="M199.22,43.45h0l-.33-.15a.75.75,0,0,1-.2-.15.94.94,0,0,1-.29-.69,1,1,0,0,1,.3-.7,2.12,2.12,0,0,1,1.61-.63,2.16,2.16,0,0,1,1,.23,2.77,2.77,0,0,1,.85.63.2.2,0,0,1,0,.15.27.27,0,0,1-.27.27h0a.24.24,0,0,1-.16-.07l-.14-.13a1.77,1.77,0,0,0-1.32-.55,1.62,1.62,0,0,0-1.24.5.5.5,0,0,0-.13.37.44.44,0,0,0,.07.22.6.6,0,0,0,.21.14l2.19.73h0a2.33,2.33,0,0,1,.33.14.59.59,0,0,1,.2.15.92.92,0,0,1,.3.69,1,1,0,0,1-.31.71,2.19,2.19,0,0,1-1.61.62,2.41,2.41,0,0,1-1.84-.85.43.43,0,0,1,0-.16.27.27,0,0,1,.27-.27.18.18,0,0,1,.17.07l.13.13a1.86,1.86,0,0,0,1.32.55,1.63,1.63,0,0,0,1.24-.49.57.57,0,0,0,.14-.37.41.41,0,0,0-.28-.37Z"/><path class="b" d="M206.72,44.89a.27.27,0,0,1,.19.08.26.26,0,0,1,.07.19.21.21,0,0,1-.08.19,2.35,2.35,0,0,1-1.56.58,2.4,2.4,0,0,1-2.4-2.4,2.36,2.36,0,0,1,.7-1.7,2.32,2.32,0,0,1,1.7-.7,2.4,2.4,0,0,1,.84.15,2,2,0,0,1,.72.43l.07.09a.24.24,0,0,1,0,.12.27.27,0,0,1-.27.27.28.28,0,0,1-.17-.07,1.83,1.83,0,0,0-1.22-.46,1.78,1.78,0,0,0-1.32.55,1.88,1.88,0,0,0,1.32,3.19,1.82,1.82,0,0,0,.65-.12,2.33,2.33,0,0,0,.57-.34A.26.26,0,0,1,206.72,44.89Z"/><path class="b" d="M214.15,44.89a.27.27,0,0,1,.27.27h0a.25.25,0,0,1-.09.19,2.19,2.19,0,0,1-.72.43,2.4,2.4,0,0,1-3.24-2.25,2.36,2.36,0,0,1,.7-1.7,2.32,2.32,0,0,1,1.7-.7,2.4,2.4,0,0,1,.84.15,2,2,0,0,1,.72.43l.07.09a.24.24,0,0,1,0,.12.27.27,0,0,1-.27.27.28.28,0,0,1-.17-.07,1.83,1.83,0,0,0-1.22-.46,1.87,1.87,0,0,0-1.28,3.19,1.77,1.77,0,0,0,1.32.55,1.82,1.82,0,0,0,.65-.12,2.33,2.33,0,0,0,.57-.34A.3.3,0,0,1,214.15,44.89Z"/><path class="b" d="M219.56,45.67a.26.26,0,0,1-.26.26h0a.29.29,0,0,1-.18-.07.27.27,0,0,1-.08-.19v-.5a2.42,2.42,0,0,1-1.69.76,2.2,2.2,0,0,1-2.22-2.22V41.4a.19.19,0,0,1,.08-.19.25.25,0,0,1,.18-.08.27.27,0,0,1,.27.27h0v2.31a1.62,1.62,0,0,0,.49,1.19,1.68,1.68,0,0,0,1.2.5A1.71,1.71,0,0,0,219,43.71V41.4a.19.19,0,0,1,.08-.19.25.25,0,0,1,.18-.08.27.27,0,0,1,.19.08.19.19,0,0,1,.08.19Z"/><path class="b" d="M224.1,44.89a.25.25,0,0,1,.18.08.24.24,0,0,1,.08.19.27.27,0,0,1-.08.19,2.41,2.41,0,0,1-1.56.58,2.32,2.32,0,0,1-1.7-.7,2.41,2.41,0,0,1,0-3.4,2.44,2.44,0,0,1,1.71-.7,2.4,2.4,0,0,1,.84.15,2,2,0,0,1,.72.43l.07.09a.24.24,0,0,1,0,.12.26.26,0,0,1-.07.19.27.27,0,0,1-.19.08.28.28,0,0,1-.17-.07,1.83,1.83,0,0,0-1.22-.46,1.78,1.78,0,0,0-1.32.55,1.88,1.88,0,0,0,1.32,3.19,1.82,1.82,0,0,0,.65-.12,2.33,2.33,0,0,0,.57-.34A.24.24,0,0,1,224.1,44.89Z"/><path class="b" d="M225.58,45.67a.27.27,0,0,1-.08.19.3.3,0,0,1-.38,0,.27.27,0,0,1-.08-.19V41.4a.27.27,0,0,1,.08-.19.26.26,0,0,1,.38,0,.27.27,0,0,1,.08.19v.28a2,2,0,0,1,1.33-.55,1.77,1.77,0,0,1,1.32.55,3,3,0,0,1,.28.33,3,3,0,0,1,.28-.33,1.78,1.78,0,0,1,1.32-.55A1.87,1.87,0,0,1,232,43v2.67a.27.27,0,0,1-.08.19.26.26,0,0,1-.19.07.32.32,0,0,1-.19-.07.28.28,0,0,1-.07-.19V43a1.27,1.27,0,0,0-.4-.94,1.23,1.23,0,0,0-.94-.4A1.35,1.35,0,0,0,228.78,43v2.67a.27.27,0,0,1-.08.19.32.32,0,0,1-.19.07.26.26,0,0,1-.19-.07.27.27,0,0,1-.08-.19V43a1.34,1.34,0,0,0-1.33-1.34,1.23,1.23,0,0,0-.94.4,1.3,1.3,0,0,0-.39.94Z"/><path class="b" d="M236.38,44.9a.25.25,0,0,1,.18.08.19.19,0,0,1,.08.19.22.22,0,0,1-.07.18,2.29,2.29,0,0,1-1.56.58,2.42,2.42,0,1,1,1.69-4.21,2.37,2.37,0,0,1,.76,1.79.27.27,0,0,1-.27.27h-4a1.87,1.87,0,0,0,.54,1,1.77,1.77,0,0,0,1.32.55,2.06,2.06,0,0,0,.65-.11,2.17,2.17,0,0,0,.55-.33A.2.2,0,0,1,236.38,44.9Zm.48-1.63a2,2,0,0,0-.53-1.06,1.86,1.86,0,0,0-2.64,0,2,2,0,0,0-.54,1.06Z"/><path class="b" d="M240.93,45.73l-1.16-3.48-1.18,3.53a.11.11,0,0,1,0,.08.27.27,0,0,1-.19.08.27.27,0,0,1-.27-.27h0v-.11l1.42-4.26a.35.35,0,0,1,.06-.09.26.26,0,0,1,.38,0,.15.15,0,0,1,.06.09l1.17,3.53,1.18-3.53a.15.15,0,0,1,.06-.09.27.27,0,0,1,.19-.08.24.24,0,0,1,.18.07.36.36,0,0,1,.07.1l1.42,4.26v.11a.27.27,0,0,1-.27.27h0a.32.32,0,0,1-.2-.08v-.08l-1.17-3.53-1.22,3.48a.26.26,0,0,1-.08.13.27.27,0,0,1-.19.08.25.25,0,0,1-.18-.08A.35.35,0,0,1,240.93,45.73Z"/><path class="b" d="M249.27,45.06a2.64,2.64,0,0,1-1.86.87,2.4,2.4,0,0,1-2.4-2.4,2.36,2.36,0,0,1,.7-1.7,2.4,2.4,0,0,1,4.1,1.7v2.14a.27.27,0,0,1-.08.19.26.26,0,0,1-.19.07.32.32,0,0,1-.19-.07.27.27,0,0,1-.08-.19Zm-1.81-3.4a1.87,1.87,0,0,0-1.92,1.84h0a1.88,1.88,0,0,0,1.87,1.89h.05a1.88,1.88,0,0,0,1.87-1.88,1.86,1.86,0,0,0-.55-1.31A1.78,1.78,0,0,0,247.46,41.66Z"/></svg>