<svg xmlns="http://www.w3.org/2000/svg" viewBox="0 0 287.83 65.91"><defs><style>.a{fill:#f39200;}.b{fill:#1d1d1b;}</style></defs><path class="a" d="M219.11,3.9s-100.67-8-124.3,5.17c-17.72,11.65-8.12,30-.85,37.12,27.94,23.37,79.78,23,116,14.16s80.67-24.57,77.71-36.56S219.11,3.9,219.11,3.9Z"/><path class="b" d="M4.73,43.78a1.53,1.53,0,0,1-.47,1.12A1.57,1.57,0,0,1,2,44.9a1.52,1.52,0,0,1-.46-1.12V24.88A10.61,10.61,0,0,1,4.8,17.09a10.65,10.65,0,0,1,7.8-3.23,10.66,10.66,0,0,1,7.8,3.23,10.61,10.61,0,0,1,3.22,7.79,10.62,10.62,0,0,1-3.22,7.8,10.66,10.66,0,0,1-7.8,3.23,10.65,10.65,0,0,1-7.8-3.23l-.07-.08Zm0-18.9A7.59,7.59,0,0,0,7,30.46a7.59,7.59,0,0,0,5.57,2.3,7.59,7.59,0,0,0,5.57-2.3,7.59,7.59,0,0,0,2.3-5.58,7.59,7.59,0,0,0-2.3-5.57A7.59,7.59,0,0,0,12.6,17,7.59,7.59,0,0,0,7,19.31,7.59,7.59,0,0,0,4.73,24.88Z"/><path class="b" d="M48.82,24.88a11,11,0,0,1-11,11,11,11,0,0,1-11-11,11,11,0,0,1,11-11,11,11,0,0,1,11,11ZM37.8,17a7.87,7.87,0,0,0-7.88,7.87,7.87,7.87,0,0,0,7.88,7.88,7.85,7.85,0,0,0,7.87-7.88A7.85,7.85,0,0,0,37.8,17Z"/><path class="b" d="M55.12,34.33a1.52,1.52,0,0,1-.46,1.12,1.55,1.55,0,0,1-1.11.46A1.59,1.59,0,0,1,52,34.33V15.43a1.52,1.52,0,0,1,.47-1.11,1.49,1.49,0,0,1,1.11-.46,1.57,1.57,0,0,1,1.57,1.57v.42a8.25,8.25,0,0,1,5.52-2,8.36,8.36,0,0,1,6.12,2.54,10.15,10.15,0,0,1,1,1.12,9.27,9.27,0,0,1,1-1.12,8.66,8.66,0,0,1,14.78,6.12V34.33A1.52,1.52,0,0,1,83,35.45a1.55,1.55,0,0,1-1.11.46,1.59,1.59,0,0,1-1.58-1.58V22.52a5.51,5.51,0,1,0-11,0V34.33a1.58,1.58,0,0,1-2.69,1.12,1.52,1.52,0,0,1-.46-1.12V22.52a5.52,5.52,0,0,0-11,0Z"/><path class="b" d="M108.67,24.88a11,11,0,1,1-22,0,11,11,0,0,1,22,0ZM97.65,17a7.87,7.87,0,0,0-7.88,7.87,7.88,7.88,0,1,0,13.45-5.57A7.61,7.61,0,0,0,97.65,17Z"/><path class="b" d="M130.72,32.6l-.08.08a11,11,0,0,1-18.82-7.8,11,11,0,0,1,22.05,0v11a8.24,8.24,0,0,1-2.48,6,11.79,11.79,0,0,1-16.71,0,11.68,11.68,0,0,1-2.09-2.73,1.45,1.45,0,0,1-.24-.83,1.52,1.52,0,0,1,.47-1.11,1.49,1.49,0,0,1,1.11-.46,1.56,1.56,0,0,1,1.12.45,2.69,2.69,0,0,1,.34.47,8.79,8.79,0,0,0,1.51,2,8.65,8.65,0,0,0,12.25,0,5.88,5.88,0,0,0,1.57-3.76ZM122.85,17A7.87,7.87,0,0,0,115,24.88a7.88,7.88,0,1,0,13.45-5.57A7.61,7.61,0,0,0,122.85,17Z"/><path class="b" d="M142.14,9.13a2,2,0,0,1-3.36,1.39,1.94,1.94,0,0,1,0-2.77,2,2,0,0,1,2.78,0A1.87,1.87,0,0,1,142.14,9.13Zm-3.54,6.3a1.57,1.57,0,0,1,1.57-1.57,1.48,1.48,0,0,1,1.11.46,1.52,1.52,0,0,1,.47,1.11v18.9a1.59,1.59,0,0,1-1.58,1.58,1.55,1.55,0,0,1-1.11-.46,1.52,1.52,0,0,1-.46-1.12Z"/><path class="b" d="M157.5,32.76a1.58,1.58,0,0,1,1.11,2.69,1.55,1.55,0,0,1-1.11.46q-7.87,0-7.88-7.88V17h-1.57a1.52,1.52,0,0,1-1.12-.46,1.58,1.58,0,0,1,0-2.23,1.52,1.52,0,0,1,1.12-.46h1.57V6a1.55,1.55,0,0,1,.46-1.11A1.58,1.58,0,0,1,152.77,6v7.88h3.17a1.49,1.49,0,0,1,1.11.46,1.56,1.56,0,0,1,0,2.23,1.49,1.49,0,0,1-1.11.46h-3.17V28Q152.77,32.75,157.5,32.76Z"/><path class="b" d="M179.31,30.55a1.61,1.61,0,0,1,1.58,1.58,1.57,1.57,0,0,1-.46,1.12,11,11,0,0,1-15-.57,10.63,10.63,0,0,1-3.23-7.8,11,11,0,0,1,22.05,0,1.57,1.57,0,0,1-1.57,1.58H165.51a7.91,7.91,0,0,0,7.74,6.3,7.42,7.42,0,0,0,5.08-1.87A1.56,1.56,0,0,1,179.31,30.55ZM181,23.31a7.9,7.9,0,0,0-15.47,0Z"/><path class="b" d="M192.15,33.55a2.36,2.36,0,1,1-.69-1.68A2.28,2.28,0,0,1,192.15,33.55Z"/><path class="b" d="M198.45,34.33a1.59,1.59,0,0,1-1.58,1.58,1.55,1.55,0,0,1-1.11-.46,1.52,1.52,0,0,1-.46-1.12V15.43a1.57,1.57,0,0,1,1.57-1.57,1.49,1.49,0,0,1,1.11.46,1.52,1.52,0,0,1,.47,1.11v.42a8.23,8.23,0,0,1,5.51-2,8.34,8.34,0,0,1,6.12,2.54,9.27,9.27,0,0,1,1,1.12,9.17,9.17,0,0,1,1-1.12,8.67,8.67,0,0,1,14.79,6.12V34.33a1.53,1.53,0,0,1-.47,1.12,1.57,1.57,0,0,1-2.22,0,1.52,1.52,0,0,1-.46-1.12V22.52a5.52,5.52,0,1,0-11,0V34.33a1.52,1.52,0,0,1-.46,1.12,1.58,1.58,0,0,1-2.23,0,1.52,1.52,0,0,1-.46-1.12V22.52a5.51,5.51,0,1,0-11,0Z"/><path class="b" d="M247,30.55a1.53,1.53,0,0,1,1.12.47,1.59,1.59,0,0,1,0,2.23A11,11,0,0,1,230,24.88a11,11,0,1,1,22,0,1.57,1.57,0,0,1-1.57,1.58H233.23a7.91,7.91,0,0,0,7.74,6.3,7.42,7.42,0,0,0,5.08-1.87A1.6,1.6,0,0,1,247,30.55Zm1.68-7.24a7.91,7.91,0,0,0-15.48,0Z"/><path class="b" d="M143.51,44a3.32,3.32,0,0,1-1,2.43,3.27,3.27,0,0,1-2.42,1,3.19,3.19,0,0,1-1.31-.26,3.35,3.35,0,0,1-1.86-1.86,3.43,3.43,0,0,1,3.17-4.74A3.45,3.45,0,0,1,143.51,44Zm-3.43-2.9a2.83,2.83,0,0,0-2.05.85,2.91,2.91,0,0,0,2.05,5,2.83,2.83,0,0,0,2-.85,2.91,2.91,0,0,0,0-4.11A2.83,2.83,0,0,0,140.08,41.09Z"/><path class="b" d="M144.2,42.89a.27.27,0,0,1,.27-.27.25.25,0,0,1,.18.08.22.22,0,0,1,.08.19v.49a2.45,2.45,0,0,1,1.69-.76,2.24,2.24,0,0,1,2.23,2.23v2.31a.29.29,0,0,1-.08.19.28.28,0,0,1-.19.07.25.25,0,0,1-.19-.07.29.29,0,0,1-.08-.19V44.85a1.71,1.71,0,0,0-1.69-1.7,1.69,1.69,0,0,0-1.69,1.7v2.31a.25.25,0,0,1-.08.19.24.24,0,0,1-.18.07.25.25,0,0,1-.19-.07.29.29,0,0,1-.08-.19Z"/><path class="b" d="M149.61,45.29a.26.26,0,0,1-.19-.08.22.22,0,0,1-.08-.19.24.24,0,0,1,.08-.19.25.25,0,0,1,.19-.07h2.13a.26.26,0,0,1,.19.07A.27.27,0,0,1,152,45a.26.26,0,0,1-.08.19.27.27,0,0,1-.19.08Z"/><path class="b" d="M152.8,40.82a.27.27,0,0,1,.08-.19.26.26,0,0,1,.19-.08.29.29,0,0,1,.19.08.27.27,0,0,1,.08.19v6.07h.44A.27.27,0,0,1,154,47a.26.26,0,0,1,.08.19.29.29,0,0,1-.08.19.26.26,0,0,1-.19.07h-.71a.25.25,0,0,1-.19-.07.29.29,0,0,1-.08-.19Z"/><path class="b" d="M155.84,41.46a.36.36,0,0,1-.11.26.36.36,0,0,1-.5,0,.36.36,0,0,1-.11-.26.36.36,0,0,1,.11-.25.36.36,0,0,1,.5,0A.36.36,0,0,1,155.84,41.46Zm-.63,1.43a.27.27,0,0,1,.27-.27.27.27,0,0,1,.19.08.26.26,0,0,1,.08.19v4.27a.29.29,0,0,1-.08.19.26.26,0,0,1-.19.07.25.25,0,0,1-.19-.07.29.29,0,0,1-.08-.19Z"/><path class="b" d="M156.89,42.89a.27.27,0,0,1,.27-.27.29.29,0,0,1,.19.08.25.25,0,0,1,.07.19v.49a2.45,2.45,0,0,1,1.69-.76,2.24,2.24,0,0,1,2.23,2.23v2.31a.29.29,0,0,1-.08.19.28.28,0,0,1-.19.07.25.25,0,0,1-.19-.07.29.29,0,0,1-.08-.19V44.85a1.59,1.59,0,0,0-.5-1.2,1.69,1.69,0,0,0-2.88,1.2v2.31a.24.24,0,0,1-.26.26.25.25,0,0,1-.19-.07.29.29,0,0,1-.08-.19Z"/><path class="b" d="M165.8,46.39a.27.27,0,0,1,.19.08.26.26,0,0,1,.08.19.27.27,0,0,1-.07.18,2.41,2.41,0,0,1-3.27-.12,2.4,2.4,0,0,1,3.4-3.4,2.32,2.32,0,0,1,.7,1.7.25.25,0,0,1-.07.19.29.29,0,0,1-.19.08h-4a2,2,0,0,0,.54,1.05,1.8,1.8,0,0,0,1.32.55,1.75,1.75,0,0,0,1.2-.44A.27.27,0,0,1,165.8,46.39Zm.49-1.63a2,2,0,0,0-.54-1.06,1.8,1.8,0,0,0-1.32-.55,1.84,1.84,0,0,0-1.32.55,2.11,2.11,0,0,0-.54,1.06Z"/><path class="b" d="M170.09,40.83a.27.27,0,0,1,.27-.27.25.25,0,0,1,.18.08.26.26,0,0,1,.08.19v2.9h3.69v-2.9a.26.26,0,0,1,.08-.19.27.27,0,0,1,.19-.08.29.29,0,0,1,.19.08.25.25,0,0,1,.07.19v6.33a.24.24,0,0,1-.26.26.26.26,0,0,1-.19-.07.29.29,0,0,1-.08-.19v-2.9h-3.69v2.9a.29.29,0,0,1-.08.19.24.24,0,0,1-.18.07.25.25,0,0,1-.19-.07.29.29,0,0,1-.08-.19Z"/><path class="b" d="M179.35,46.39a.27.27,0,0,1,.19.08.25.25,0,0,1,.07.19.26.26,0,0,1-.06.18,2.4,2.4,0,0,1-3.27-3.52,2.41,2.41,0,0,1,3.4,0,2.32,2.32,0,0,1,.7,1.7.22.22,0,0,1-.08.19.25.25,0,0,1-.18.08h-4a2,2,0,0,0,.54,1.05,1.8,1.8,0,0,0,1.32.55,1.75,1.75,0,0,0,1.2-.44A.27.27,0,0,1,179.35,46.39Zm.49-1.63a2,2,0,0,0-.54-1.06,1.8,1.8,0,0,0-1.32-.55,1.84,1.84,0,0,0-1.32.55,2.11,2.11,0,0,0-.54,1.06Z"/><path class="b" d="M181.1,40.82a.24.24,0,0,1,.08-.19.25.25,0,0,1,.18-.08.3.3,0,0,1,.2.08.26.26,0,0,1,.07.19v6.07h.45a.29.29,0,0,1,.19.08.26.26,0,0,1,.08.19.29.29,0,0,1-.08.19.28.28,0,0,1-.19.07h-.72a.24.24,0,0,1-.18-.07.25.25,0,0,1-.08-.19Z"/><path class="b" d="M183.66,49.21a.26.26,0,0,1-.08.19.22.22,0,0,1-.19.08.24.24,0,0,1-.19-.08.25.25,0,0,1-.07-.19V45a2.4,2.4,0,1,1,4.09,1.7,2.4,2.4,0,0,1-3.39,0l-.17-.17Zm0-4.19a1.88,1.88,0,0,0,1.87,1.87,1.87,1.87,0,0,0,1.32-3.19,1.84,1.84,0,0,0-1.32-.55A1.88,1.88,0,0,0,183.66,45Z"/><path class="b" d="M190.29,40.56a3.43,3.43,0,0,1,0,6.86h-1.41a.25.25,0,0,1-.19-.07.29.29,0,0,1-.08-.19V40.83a.27.27,0,0,1,.27-.27Zm0,6.34a2.91,2.91,0,0,0,0-5.81h-1.15V46.9Z"/><path class="b" d="M198.21,46.39a.27.27,0,0,1,.27.27.23.23,0,0,1-.07.18,2.4,2.4,0,0,1-3.26-.12,2.4,2.4,0,1,1,4.1-1.7.27.27,0,0,1-.27.27h-4a2,2,0,0,0,.55,1.05,1.77,1.77,0,0,0,1.32.55,2,2,0,0,0,.65-.11,2.06,2.06,0,0,0,.55-.33A.25.25,0,0,1,198.21,46.39Zm.49-1.63a2,2,0,0,0-.53-1.06,1.84,1.84,0,0,0-1.32-.55,1.8,1.8,0,0,0-1.32.55,2,2,0,0,0-.55,1.06Z"/><path class="b" d="M200.76,44.94h0l-.33-.15a.62.62,0,0,1-.2-.15.94.94,0,0,1-.29-.69,1,1,0,0,1,.3-.7,2.15,2.15,0,0,1,1.61-.63,2.26,2.26,0,0,1,1,.23,3,3,0,0,1,.85.63.24.24,0,0,1,0,.15.27.27,0,0,1-.27.27.19.19,0,0,1-.16-.07l-.14-.13a1.8,1.8,0,0,0-1.32-.55,1.63,1.63,0,0,0-1.24.5.52.52,0,0,0-.13.37.41.41,0,0,0,.07.22.46.46,0,0,0,.21.14l2.19.73h0a2.73,2.73,0,0,1,.33.14.69.69,0,0,1,.2.15.92.92,0,0,1,.3.69,1,1,0,0,1-.31.71,2.17,2.17,0,0,1-1.61.62,2.39,2.39,0,0,1-1.84-.85.3.3,0,0,1,0-.16.27.27,0,0,1,.08-.19.26.26,0,0,1,.19-.08.22.22,0,0,1,.17.07l.13.13a1.8,1.8,0,0,0,1.32.55,1.61,1.61,0,0,0,1.24-.49.55.55,0,0,0,.14-.37.41.41,0,0,0-.28-.37Z"/><path class="b" d="M208.26,46.38a.27.27,0,0,1,.19.08.26.26,0,0,1,.07.19.22.22,0,0,1-.08.19,2.3,2.3,0,0,1-.72.43,2.4,2.4,0,0,1-.84.15,2.4,2.4,0,0,1-1.7-4.1,2.36,2.36,0,0,1,1.7-.7,2.4,2.4,0,0,1,.84.15,2.19,2.19,0,0,1,.72.43l.07.09a.27.27,0,0,1,0,.12.27.27,0,0,1-.08.19.26.26,0,0,1-.19.08.26.26,0,0,1-.17-.07,1.83,1.83,0,0,0-1.22-.46,1.8,1.8,0,0,0-1.32.55,1.87,1.87,0,0,0,1.32,3.19,1.82,1.82,0,0,0,.65-.12,2.33,2.33,0,0,0,.57-.34A.28.28,0,0,1,208.26,46.38Z"/><path class="b" d="M215.69,46.38a.27.27,0,0,1,.27.27.23.23,0,0,1-.09.19,2.19,2.19,0,0,1-.72.43,2.4,2.4,0,0,1-.84.15,2.4,2.4,0,0,1-1.7-4.1,2.36,2.36,0,0,1,1.7-.7,2.4,2.4,0,0,1,.84.15,2.19,2.19,0,0,1,.72.43l.07.09a.27.27,0,0,1,0,.12.27.27,0,0,1-.08.19.26.26,0,0,1-.19.08.26.26,0,0,1-.17-.07,1.83,1.83,0,0,0-1.22-.46A1.87,1.87,0,0,0,213,46.34a1.77,1.77,0,0,0,1.32.55,1.82,1.82,0,0,0,.65-.12,2.33,2.33,0,0,0,.57-.34A.28.28,0,0,1,215.69,46.38Z"/><path class="b" d="M221.1,47.16a.26.26,0,0,1-.27.26.24.24,0,0,1-.18-.07.25.25,0,0,1-.08-.19v-.5a2.4,2.4,0,0,1-1.69.76,2.16,2.16,0,0,1-1.57-.64,2.14,2.14,0,0,1-.65-1.58V42.89a.22.22,0,0,1,.08-.19.25.25,0,0,1,.18-.08.27.27,0,0,1,.27.27V45.2a1.59,1.59,0,0,0,.49,1.19,1.63,1.63,0,0,0,1.2.5,1.71,1.71,0,0,0,1.69-1.69V42.89a.22.22,0,0,1,.08-.19.25.25,0,0,1,.18-.08.26.26,0,0,1,.19.08.22.22,0,0,1,.08.19Z"/><path class="b" d="M225.64,46.38a.25.25,0,0,1,.18.08.24.24,0,0,1,.08.19.26.26,0,0,1-.08.19,2.35,2.35,0,0,1-1.56.58,2.3,2.3,0,0,1-1.7-.7,2.4,2.4,0,0,1,1.7-4.1,2.4,2.4,0,0,1,.84.15,2.3,2.3,0,0,1,.72.43l.07.09a.5.5,0,0,1,0,.12.26.26,0,0,1-.07.19.27.27,0,0,1-.19.08.24.24,0,0,1-.17-.07,1.83,1.83,0,0,0-1.22-.46,1.8,1.8,0,0,0-1.32.55,1.87,1.87,0,0,0,1.32,3.19,1.82,1.82,0,0,0,.65-.12,2.33,2.33,0,0,0,.57-.34A.25.25,0,0,1,225.64,46.38Z"/><path class="b" d="M227.12,47.16a.29.29,0,0,1-.08.19.29.29,0,0,1-.38,0,.29.29,0,0,1-.08-.19V42.89a.26.26,0,0,1,.08-.19.27.27,0,0,1,.38,0,.26.26,0,0,1,.08.19v.28a2.06,2.06,0,0,1,1.33-.55,1.8,1.8,0,0,1,1.32.55,3.41,3.41,0,0,1,.28.33,3.41,3.41,0,0,1,.28-.33,1.8,1.8,0,0,1,1.32-.55,1.88,1.88,0,0,1,1.87,1.87v2.67a.29.29,0,0,1-.08.19.25.25,0,0,1-.19.07.26.26,0,0,1-.19-.07.28.28,0,0,1-.07-.19V44.49a1.29,1.29,0,0,0-.4-.94,1.25,1.25,0,0,0-.94-.4,1.35,1.35,0,0,0-1.33,1.34v2.67a.29.29,0,0,1-.08.19.26.26,0,0,1-.19.07.25.25,0,0,1-.19-.07.29.29,0,0,1-.08-.19V44.49a1.35,1.35,0,0,0-1.33-1.34,1.25,1.25,0,0,0-.94.4,1.28,1.28,0,0,0-.39.94Z"/><path class="b" d="M237.92,46.39a.25.25,0,0,1,.18.08.22.22,0,0,1,.08.19.23.23,0,0,1-.07.18,2.27,2.27,0,0,1-1.56.58,2.4,2.4,0,0,1-1.7-4.1A2.4,2.4,0,0,1,239,45a.27.27,0,0,1-.27.27h-4a1.9,1.9,0,0,0,.54,1.05,1.77,1.77,0,0,0,1.32.55,2,2,0,0,0,.65-.11,2.06,2.06,0,0,0,.55-.33A.25.25,0,0,1,237.92,46.39Zm.48-1.63a2,2,0,0,0-.53-1.06,1.84,1.84,0,0,0-1.32-.55,1.8,1.8,0,0,0-1.32.55,2,2,0,0,0-.54,1.06Z"/><path class="b" d="M242.47,47.22l-1.16-3.48-1.18,3.53a.22.22,0,0,1,0,.08.27.27,0,0,1-.19.08.27.27,0,0,1-.27-.27.52.52,0,0,1,0-.11l1.42-4.26a.35.35,0,0,1,.06-.09.27.27,0,0,1,.38,0,.24.24,0,0,1,.06.09l1.17,3.53,1.18-3.53a.15.15,0,0,1,.06-.09.26.26,0,0,1,.19-.08.27.27,0,0,1,.18.07.46.46,0,0,1,.07.1l1.42,4.26a.52.52,0,0,1,0,.11.27.27,0,0,1-.27.27.3.3,0,0,1-.2-.08.22.22,0,0,1,0-.08l-1.17-3.53L243,47.22a.32.32,0,0,1-.08.13.26.26,0,0,1-.19.08.25.25,0,0,1-.18-.08A.32.32,0,0,1,242.47,47.22Z"/><path class="b" d="M250.81,46.55a2.61,2.61,0,0,1-1.86.87,2.4,2.4,0,0,1-1.7-4.1,2.4,2.4,0,0,1,4.1,1.7v2.14a.29.29,0,0,1-.08.19.25.25,0,0,1-.19.07.26.26,0,0,1-.19-.07.29.29,0,0,1-.08-.19ZM249,43.15A1.88,1.88,0,0,0,247.08,45,1.88,1.88,0,0,0,249,46.89a1.87,1.87,0,0,0,1.32-3.19A1.84,1.84,0,0,0,249,43.15Z"/></svg>